<?xml version="1.0" standalone="no"?>
<!DOCTYPE svg PUBLIC "-//W3C//DTD SVG 20010904//EN"
 "http://www.w3.org/TR/2001/REC-SVG-20010904/DTD/svg10.dtd">
<svg version="1.0" xmlns="http://www.w3.org/2000/svg"
 width="269.000000pt" height="269.000000pt" viewBox="0 0 269.000000 269.000000"
 preserveAspectRatio="xMidYMid meet">
<metadata>
Created by potrace 1.11, written by Peter Selinger 2001-2013
</metadata>
<g transform="translate(0.000000,269.000000) scale(0.100000,-0.100000)"
fill="#000000" stroke="none">
<path d="M1286 2262 c-39 -59 -99 -151 -134 -204 -35 -54 -62 -101 -60 -107
13 -35 265 -408 271 -401 11 9 232 345 252 382 15 27 14 30 -120 233 -74 113
-136 205 -137 205 -2 -1 -34 -49 -72 -108z"/>
<path d="M2254 1962 c-16 -2 -24 -13 -29 -40 -11 -57 -61 -121 -96 -122 -9 0
-19 -6 -21 -12 -2 -7 -4 -300 -4 -652 l1 -638 35 -17 c42 -20 76 -68 85 -120
6 -36 9 -39 35 -37 16 1 33 6 37 10 4 4 8 372 8 816 0 878 4 821 -51 812z"/>
<path d="M415 1948 c-3 -7 -4 -375 -3 -818 l3 -805 28 1 c45 2 47 3 47 23 0
53 52 124 100 136 l25 6 0 651 0 651 -25 4 c-13 2 -33 11 -43 21 -27 24 -57
86 -57 117 0 22 -4 25 -35 25 -20 0 -38 -6 -40 -12z"/>
<path d="M1110 673 l0 -352 249 0 250 0 -1 350 -1 349 -21 -29 c-11 -17 -66
-100 -121 -185 -55 -85 -102 -155 -105 -155 -3 -1 -60 83 -127 187 l-123 187
0 -352z"/>
</g>
</svg>
